<svg xmlns:xlink="http://www.w3.org/1999/xlink" width="1.094ex" height="2.843ex" style="font-size: 15px; vertical-align: -0.338ex;" viewBox="0 -1078.4 471 1223.9" role="img" focusable="false" xmlns="http://www.w3.org/2000/svg">
<defs>
<path stroke-width="1" id="E1-MJMATHI-69" d="M184 600Q184 624 203 642T247 661Q265 661 277 649T290 619Q290 596 270 577T226 557Q211 557 198 567T184 600ZM21 287Q21 295 30 318T54 369T98 420T158 442Q197 442 223 419T250 357Q250 340 236 301T196 196T154 83Q149 61 149 51Q149 26 166 26Q175 26 185 29T208 43T235 78T260 137Q263 149 265 151T282 153Q302 153 302 143Q302 135 293 112T268 61T223 11T161 -11Q129 -11 102 10T74 74Q74 91 79 106T122 220Q160 321 166 341T173 380Q173 404 156 404H154Q124 404 99 371T61 287Q60 286 59 284T58 281T56 279T53 278T49 278T41 278H27Q21 284 21 287Z"></path>
<path stroke-width="1" id="E1-MJMAIN-20D7" d="M-123 694Q-123 702 -118 708T-103 714Q-93 714 -88 706T-80 687T-67 660T-40 633Q-29 626 -29 615Q-29 606 -36 600T-53 590T-83 571T-121 531Q-135 516 -143 516T-157 522T-163 536T-152 559T-129 584T-116 595H-287L-458 596Q-459 597 -461 599T-466 602T-469 607T-471 615Q-471 622 -458 635H-99Q-123 673 -123 694Z"></path>
</defs>
<g stroke="currentColor" fill="currentColor" stroke-width="0" transform="matrix(1 0 0 -1 0 0)">
 <use xlink:href="#E1-MJMATHI-69" x="62" y="0"></use>
 <use xlink:href="#E1-MJMAIN-20D7" x="470" y="254"></use>
</g>
</svg>