<svg xmlns:xlink="http://www.w3.org/1999/xlink" width="99.049ex" height="12.509ex" style="font-size: 15px; vertical-align: -5.671ex;" viewBox="0 -2944.1 42646 5385.9" role="img" focusable="false" xmlns="http://www.w3.org/2000/svg">
<defs>
<path stroke-width="1" id="E1-MJMAIN-5B" d="M118 -250V750H255V710H158V-210H255V-250H118Z"></path>
<path stroke-width="1" id="E1-MJMATHI-61" d="M33 157Q33 258 109 349T280 441Q331 441 370 392Q386 422 416 422Q429 422 439 414T449 394Q449 381 412 234T374 68Q374 43 381 35T402 26Q411 27 422 35Q443 55 463 131Q469 151 473 152Q475 153 483 153H487Q506 153 506 144Q506 138 501 117T481 63T449 13Q436 0 417 -8Q409 -10 393 -10Q359 -10 336 5T306 36L300 51Q299 52 296 50Q294 48 292 46Q233 -10 172 -10Q117 -10 75 30T33 157ZM351 328Q351 334 346 350T323 385T277 405Q242 405 210 374T160 293Q131 214 119 129Q119 126 119 118T118 106Q118 61 136 44T179 26Q217 26 254 59T298 110Q300 114 325 217T351 328Z"></path>
<path stroke-width="1" id="E1-MJMAIN-31" d="M213 578L200 573Q186 568 160 563T102 556H83V602H102Q149 604 189 617T245 641T273 663Q275 666 285 666Q294 666 302 660V361L303 61Q310 54 315 52T339 48T401 46H427V0H416Q395 3 257 3Q121 3 100 0H88V46H114Q136 46 152 46T177 47T193 50T201 52T207 57T213 61V578Z"></path>
<path stroke-width="1" id="E1-MJMAIN-32" d="M109 429Q82 429 66 447T50 491Q50 562 103 614T235 666Q326 666 387 610T449 465Q449 422 429 383T381 315T301 241Q265 210 201 149L142 93L218 92Q375 92 385 97Q392 99 409 186V189H449V186Q448 183 436 95T421 3V0H50V19V31Q50 38 56 46T86 81Q115 113 136 137Q145 147 170 174T204 211T233 244T261 278T284 308T305 340T320 369T333 401T340 431T343 464Q343 527 309 573T212 619Q179 619 154 602T119 569T109 550Q109 549 114 549Q132 549 151 535T170 489Q170 464 154 447T109 429Z"></path>
<path stroke-width="1" id="E1-MJMAIN-2E" d="M78 60Q78 84 95 102T138 120Q162 120 180 104T199 61Q199 36 182 18T139 0T96 17T78 60Z"></path>
<path stroke-width="1" id="E1-MJMATHI-6E" d="M21 287Q22 293 24 303T36 341T56 388T89 425T135 442Q171 442 195 424T225 390T231 369Q231 367 232 367L243 378Q304 442 382 442Q436 442 469 415T503 336T465 179T427 52Q427 26 444 26Q450 26 453 27Q482 32 505 65T540 145Q542 153 560 153Q580 153 580 145Q580 144 576 130Q568 101 554 73T508 17T439 -10Q392 -10 371 17T350 73Q350 92 386 193T423 345Q423 404 379 404H374Q288 404 229 303L222 291L189 157Q156 26 151 16Q138 -11 108 -11Q95 -11 87 -5T76 7T74 17Q74 30 112 180T152 343Q153 348 153 366Q153 405 129 405Q91 405 66 305Q60 285 60 284Q58 278 41 278H27Q21 284 21 287Z"></path>
<path stroke-width="1" id="E1-MJMATHI-6D" d="M21 287Q22 293 24 303T36 341T56 388T88 425T132 442T175 435T205 417T221 395T229 376L231 369Q231 367 232 367L243 378Q303 442 384 442Q401 442 415 440T441 433T460 423T475 411T485 398T493 385T497 373T500 364T502 357L510 367Q573 442 659 442Q713 442 746 415T780 336Q780 285 742 178T704 50Q705 36 709 31T724 26Q752 26 776 56T815 138Q818 149 821 151T837 153Q857 153 857 145Q857 144 853 130Q845 101 831 73T785 17T716 -10Q669 -10 648 17T627 73Q627 92 663 193T700 345Q700 404 656 404H651Q565 404 506 303L499 291L466 157Q433 26 428 16Q415 -11 385 -11Q372 -11 364 -4T353 8T350 18Q350 29 384 161L420 307Q423 322 423 345Q423 404 379 404H374Q288 404 229 303L222 291L189 157Q156 26 151 16Q138 -11 108 -11Q95 -11 87 -5T76 7T74 17Q74 30 112 181Q151 335 151 342Q154 357 154 369Q154 405 129 405Q107 405 92 377T69 316T57 280Q55 278 41 278H27Q21 284 21 287Z"></path>
<path stroke-width="1" id="E1-MJMAIN-5D" d="M22 710V750H159V-250H22V-210H119V710H22Z"></path>
<path stroke-width="1" id="E1-MJSZ4-23A1" d="M319 -645V1154H666V1070H403V-645H319Z"></path>
<path stroke-width="1" id="E1-MJSZ4-23A3" d="M319 -644V1155H403V-560H666V-644H319Z"></path>
<path stroke-width="1" id="E1-MJSZ4-23A2" d="M319 0V602H403V0H319Z"></path>
<path stroke-width="1" id="E1-MJSZ4-23A4" d="M0 1070V1154H347V-645H263V1070H0Z"></path>
<path stroke-width="1" id="E1-MJSZ4-23A6" d="M263 -560V1155H347V-644H0V-560H263Z"></path>
<path stroke-width="1" id="E1-MJSZ4-23A5" d="M263 0V602H347V0H263Z"></path>
<path stroke-width="1" id="E1-MJMAIN-2B" d="M56 237T56 250T70 270H369V420L370 570Q380 583 389 583Q402 583 409 568V270H707Q722 262 722 250T707 230H409V-68Q401 -82 391 -82H389H387Q375 -82 369 -68V230H70Q56 237 56 250Z"></path>
<path stroke-width="1" id="E1-MJMATHI-62" d="M73 647Q73 657 77 670T89 683Q90 683 161 688T234 694Q246 694 246 685T212 542Q204 508 195 472T180 418L176 399Q176 396 182 402Q231 442 283 442Q345 442 383 396T422 280Q422 169 343 79T173 -11Q123 -11 82 27T40 150V159Q40 180 48 217T97 414Q147 611 147 623T109 637Q104 637 101 637H96Q86 637 83 637T76 640T73 647ZM336 325V331Q336 405 275 405Q258 405 240 397T207 376T181 352T163 330L157 322L136 236Q114 150 114 114Q114 66 138 42Q154 26 178 26Q211 26 245 58Q270 81 285 114T318 219Q336 291 336 325Z"></path>
<path stroke-width="1" id="E1-MJMAIN-3D" d="M56 347Q56 360 70 367H707Q722 359 722 347Q722 336 708 328L390 327H72Q56 332 56 347ZM56 153Q56 168 72 173H708Q722 163 722 153Q722 140 707 133H70Q56 140 56 153Z"></path>
</defs>
<g stroke="currentColor" fill="currentColor" stroke-width="0" transform="matrix(1 0 0 -1 0 0)">
<g transform="translate(0,2850)">
 <use xlink:href="#E1-MJSZ4-23A1" x="0" y="-1155"></use>
<g transform="translate(0,-3446.188741721854) scale(1,2.8112582781456954)">
 <use xlink:href="#E1-MJSZ4-23A2"></use>
</g>
 <use xlink:href="#E1-MJSZ4-23A3" x="0" y="-4555"></use>
</g>
<g transform="translate(834,0)">
<g transform="translate(-11,0)">
<g transform="translate(133,2050)">
 <use xlink:href="#E1-MJMATHI-61" x="0" y="0"></use>
<g transform="translate(529,-150)">
 <use transform="scale(0.707)" xlink:href="#E1-MJMAIN-31"></use>
 <use transform="scale(0.707)" xlink:href="#E1-MJMAIN-31" x="500" y="0"></use>
</g>
</g>
<g transform="translate(133,650)">
 <use xlink:href="#E1-MJMATHI-61" x="0" y="0"></use>
<g transform="translate(529,-150)">
 <use transform="scale(0.707)" xlink:href="#E1-MJMAIN-32"></use>
 <use transform="scale(0.707)" xlink:href="#E1-MJMAIN-31" x="500" y="0"></use>
</g>
</g>
<g transform="translate(217,-750)">
 <use xlink:href="#E1-MJMAIN-2E" x="0" y="0"></use>
 <use xlink:href="#E1-MJMAIN-2E" x="445" y="0"></use>
 <use xlink:href="#E1-MJMAIN-2E" x="890" y="0"></use>
</g>
<g transform="translate(0,-2150)">
 <use xlink:href="#E1-MJMATHI-61" x="0" y="0"></use>
<g transform="translate(529,-150)">
 <use transform="scale(0.707)" xlink:href="#E1-MJMATHI-6D" x="0" y="0"></use>
 <use transform="scale(0.707)" xlink:href="#E1-MJMAIN-31" x="878" y="0"></use>
</g>
</g>
</g>
<g transform="translate(2594,0)">
<g transform="translate(133,2050)">
 <use xlink:href="#E1-MJMATHI-61" x="0" y="0"></use>
<g transform="translate(529,-150)">
 <use transform="scale(0.707)" xlink:href="#E1-MJMAIN-31"></use>
 <use transform="scale(0.707)" xlink:href="#E1-MJMAIN-32" x="500" y="0"></use>
</g>
</g>
<g transform="translate(133,650)">
 <use xlink:href="#E1-MJMATHI-61" x="0" y="0"></use>
<g transform="translate(529,-150)">
 <use transform="scale(0.707)" xlink:href="#E1-MJMAIN-32"></use>
 <use transform="scale(0.707)" xlink:href="#E1-MJMAIN-32" x="500" y="0"></use>
</g>
</g>
<g transform="translate(217,-750)">
 <use xlink:href="#E1-MJMAIN-2E" x="0" y="0"></use>
 <use xlink:href="#E1-MJMAIN-2E" x="445" y="0"></use>
 <use xlink:href="#E1-MJMAIN-2E" x="890" y="0"></use>
</g>
<g transform="translate(0,-2150)">
 <use xlink:href="#E1-MJMATHI-61" x="0" y="0"></use>
<g transform="translate(529,-150)">
 <use transform="scale(0.707)" xlink:href="#E1-MJMATHI-6D" x="0" y="0"></use>
 <use transform="scale(0.707)" xlink:href="#E1-MJMAIN-32" x="878" y="0"></use>
</g>
</g>
</g>
<g transform="translate(5198,0)">
<g transform="translate(0,2050)">
 <use xlink:href="#E1-MJMAIN-2E" x="0" y="0"></use>
 <use xlink:href="#E1-MJMAIN-2E" x="445" y="0"></use>
 <use xlink:href="#E1-MJMAIN-2E" x="890" y="0"></use>
</g>
<g transform="translate(0,650)">
 <use xlink:href="#E1-MJMAIN-2E" x="0" y="0"></use>
 <use xlink:href="#E1-MJMAIN-2E" x="445" y="0"></use>
 <use xlink:href="#E1-MJMAIN-2E" x="890" y="0"></use>
</g>
<g transform="translate(0,-750)">
 <use xlink:href="#E1-MJMAIN-2E" x="0" y="0"></use>
 <use xlink:href="#E1-MJMAIN-2E" x="445" y="0"></use>
 <use xlink:href="#E1-MJMAIN-2E" x="890" y="0"></use>
</g>
<g transform="translate(0,-2150)">
 <use xlink:href="#E1-MJMAIN-2E" x="0" y="0"></use>
 <use xlink:href="#E1-MJMAIN-2E" x="445" y="0"></use>
 <use xlink:href="#E1-MJMAIN-2E" x="890" y="0"></use>
</g>
</g>
<g transform="translate(7367,0)">
<g transform="translate(133,2050)">
 <use xlink:href="#E1-MJMATHI-61" x="0" y="0"></use>
<g transform="translate(529,-150)">
 <use transform="scale(0.707)" xlink:href="#E1-MJMAIN-31" x="0" y="0"></use>
 <use transform="scale(0.707)" xlink:href="#E1-MJMATHI-6E" x="500" y="0"></use>
</g>
</g>
<g transform="translate(133,650)">
 <use xlink:href="#E1-MJMATHI-61" x="0" y="0"></use>
<g transform="translate(529,-150)">
 <use transform="scale(0.707)" xlink:href="#E1-MJMAIN-32" x="0" y="0"></use>
 <use transform="scale(0.707)" xlink:href="#E1-MJMATHI-6E" x="500" y="0"></use>
</g>
</g>
<g transform="translate(253,-750)">
 <use xlink:href="#E1-MJMAIN-2E" x="0" y="0"></use>
 <use xlink:href="#E1-MJMAIN-2E" x="445" y="0"></use>
 <use xlink:href="#E1-MJMAIN-2E" x="890" y="0"></use>
</g>
<g transform="translate(0,-2150)">
 <use xlink:href="#E1-MJMATHI-61" x="0" y="0"></use>
<g transform="translate(529,-150)">
 <use transform="scale(0.707)" xlink:href="#E1-MJMATHI-6D" x="0" y="0"></use>
 <use transform="scale(0.707)" xlink:href="#E1-MJMATHI-6E" x="878" y="0"></use>
</g>
</g>
</g>
</g>
<g transform="translate(10044,2850)">
 <use xlink:href="#E1-MJSZ4-23A4" x="0" y="-1155"></use>
<g transform="translate(0,-3446.188741721854) scale(1,2.8112582781456954)">
 <use xlink:href="#E1-MJSZ4-23A5"></use>
</g>
 <use xlink:href="#E1-MJSZ4-23A6" x="0" y="-4555"></use>
</g>
 <use xlink:href="#E1-MJMAIN-2B" x="10934" y="0"></use>
<g transform="translate(11934,0)">
<g transform="translate(0,2850)">
 <use xlink:href="#E1-MJSZ4-23A1" x="0" y="-1155"></use>
<g transform="translate(0,-3446.188741721854) scale(1,2.8112582781456954)">
 <use xlink:href="#E1-MJSZ4-23A2"></use>
</g>
 <use xlink:href="#E1-MJSZ4-23A3" x="0" y="-4555"></use>
</g>
<g transform="translate(834,0)">
<g transform="translate(-11,0)">
<g transform="translate(133,2050)">
 <use xlink:href="#E1-MJMATHI-62" x="0" y="0"></use>
<g transform="translate(429,-150)">
 <use transform="scale(0.707)" xlink:href="#E1-MJMAIN-31"></use>
 <use transform="scale(0.707)" xlink:href="#E1-MJMAIN-31" x="500" y="0"></use>
</g>
</g>
<g transform="translate(133,650)">
 <use xlink:href="#E1-MJMATHI-62" x="0" y="0"></use>
<g transform="translate(429,-150)">
 <use transform="scale(0.707)" xlink:href="#E1-MJMAIN-32"></use>
 <use transform="scale(0.707)" xlink:href="#E1-MJMAIN-31" x="500" y="0"></use>
</g>
</g>
<g transform="translate(167,-750)">
 <use xlink:href="#E1-MJMAIN-2E" x="0" y="0"></use>
 <use xlink:href="#E1-MJMAIN-2E" x="445" y="0"></use>
 <use xlink:href="#E1-MJMAIN-2E" x="890" y="0"></use>
</g>
<g transform="translate(0,-2150)">
 <use xlink:href="#E1-MJMATHI-62" x="0" y="0"></use>
<g transform="translate(429,-150)">
 <use transform="scale(0.707)" xlink:href="#E1-MJMATHI-6D" x="0" y="0"></use>
 <use transform="scale(0.707)" xlink:href="#E1-MJMAIN-31" x="878" y="0"></use>
</g>
</g>
</g>
<g transform="translate(2494,0)">
<g transform="translate(133,2050)">
 <use xlink:href="#E1-MJMATHI-62" x="0" y="0"></use>
<g transform="translate(429,-150)">
 <use transform="scale(0.707)" xlink:href="#E1-MJMAIN-31"></use>
 <use transform="scale(0.707)" xlink:href="#E1-MJMAIN-32" x="500" y="0"></use>
</g>
</g>
<g transform="translate(133,650)">
 <use xlink:href="#E1-MJMATHI-62" x="0" y="0"></use>
<g transform="translate(429,-150)">
 <use transform="scale(0.707)" xlink:href="#E1-MJMAIN-32"></use>
 <use transform="scale(0.707)" xlink:href="#E1-MJMAIN-32" x="500" y="0"></use>
</g>
</g>
<g transform="translate(167,-750)">
 <use xlink:href="#E1-MJMAIN-2E" x="0" y="0"></use>
 <use xlink:href="#E1-MJMAIN-2E" x="445" y="0"></use>
 <use xlink:href="#E1-MJMAIN-2E" x="890" y="0"></use>
</g>
<g transform="translate(0,-2150)">
 <use xlink:href="#E1-MJMATHI-62" x="0" y="0"></use>
<g transform="translate(429,-150)">
 <use transform="scale(0.707)" xlink:href="#E1-MJMATHI-6D" x="0" y="0"></use>
 <use transform="scale(0.707)" xlink:href="#E1-MJMAIN-32" x="878" y="0"></use>
</g>
</g>
</g>
<g transform="translate(4998,0)">
<g transform="translate(0,2050)">
 <use xlink:href="#E1-MJMAIN-2E" x="0" y="0"></use>
 <use xlink:href="#E1-MJMAIN-2E" x="445" y="0"></use>
 <use xlink:href="#E1-MJMAIN-2E" x="890" y="0"></use>
</g>
<g transform="translate(0,650)">
 <use xlink:href="#E1-MJMAIN-2E" x="0" y="0"></use>
 <use xlink:href="#E1-MJMAIN-2E" x="445" y="0"></use>
 <use xlink:href="#E1-MJMAIN-2E" x="890" y="0"></use>
</g>
<g transform="translate(0,-750)">
 <use xlink:href="#E1-MJMAIN-2E" x="0" y="0"></use>
 <use xlink:href="#E1-MJMAIN-2E" x="445" y="0"></use>
 <use xlink:href="#E1-MJMAIN-2E" x="890" y="0"></use>
</g>
<g transform="translate(0,-2150)">
 <use xlink:href="#E1-MJMAIN-2E" x="0" y="0"></use>
 <use xlink:href="#E1-MJMAIN-2E" x="445" y="0"></use>
 <use xlink:href="#E1-MJMAIN-2E" x="890" y="0"></use>
</g>
</g>
<g transform="translate(7167,0)">
<g transform="translate(133,2050)">
 <use xlink:href="#E1-MJMATHI-62" x="0" y="0"></use>
<g transform="translate(429,-150)">
 <use transform="scale(0.707)" xlink:href="#E1-MJMAIN-31" x="0" y="0"></use>
 <use transform="scale(0.707)" xlink:href="#E1-MJMATHI-6E" x="500" y="0"></use>
</g>
</g>
<g transform="translate(133,650)">
 <use xlink:href="#E1-MJMATHI-62" x="0" y="0"></use>
<g transform="translate(429,-150)">
 <use transform="scale(0.707)" xlink:href="#E1-MJMAIN-32" x="0" y="0"></use>
 <use transform="scale(0.707)" xlink:href="#E1-MJMATHI-6E" x="500" y="0"></use>
</g>
</g>
<g transform="translate(203,-750)">
 <use xlink:href="#E1-MJMAIN-2E" x="0" y="0"></use>
 <use xlink:href="#E1-MJMAIN-2E" x="445" y="0"></use>
 <use xlink:href="#E1-MJMAIN-2E" x="890" y="0"></use>
</g>
<g transform="translate(0,-2150)">
 <use xlink:href="#E1-MJMATHI-62" x="0" y="0"></use>
<g transform="translate(429,-150)">
 <use transform="scale(0.707)" xlink:href="#E1-MJMATHI-6D" x="0" y="0"></use>
 <use transform="scale(0.707)" xlink:href="#E1-MJMATHI-6E" x="878" y="0"></use>
</g>
</g>
</g>
</g>
<g transform="translate(9744,2850)">
 <use xlink:href="#E1-MJSZ4-23A4" x="0" y="-1155"></use>
<g transform="translate(0,-3446.188741721854) scale(1,2.8112582781456954)">
 <use xlink:href="#E1-MJSZ4-23A5"></use>
</g>
 <use xlink:href="#E1-MJSZ4-23A6" x="0" y="-4555"></use>
</g>
</g>
 <use xlink:href="#E1-MJMAIN-3D" x="22624" y="0"></use>
<g transform="translate(23680,0)">
<g transform="translate(0,2850)">
 <use xlink:href="#E1-MJSZ4-23A1" x="0" y="-1155"></use>
<g transform="translate(0,-3446.188741721854) scale(1,2.8112582781456954)">
 <use xlink:href="#E1-MJSZ4-23A2"></use>
</g>
 <use xlink:href="#E1-MJSZ4-23A3" x="0" y="-4555"></use>
</g>
<g transform="translate(834,0)">
<g transform="translate(-11,0)">
<g transform="translate(267,2050)">
 <use xlink:href="#E1-MJMATHI-61" x="0" y="0"></use>
<g transform="translate(529,-150)">
 <use transform="scale(0.707)" xlink:href="#E1-MJMAIN-31"></use>
 <use transform="scale(0.707)" xlink:href="#E1-MJMAIN-31" x="500" y="0"></use>
</g>
 <use xlink:href="#E1-MJMAIN-2B" x="1559" y="0"></use>
<g transform="translate(2560,0)">
 <use xlink:href="#E1-MJMATHI-62" x="0" y="0"></use>
<g transform="translate(429,-150)">
 <use transform="scale(0.707)" xlink:href="#E1-MJMAIN-31"></use>
 <use transform="scale(0.707)" xlink:href="#E1-MJMAIN-31" x="500" y="0"></use>
</g>
</g>
</g>
<g transform="translate(267,650)">
 <use xlink:href="#E1-MJMATHI-61" x="0" y="0"></use>
<g transform="translate(529,-150)">
 <use transform="scale(0.707)" xlink:href="#E1-MJMAIN-32"></use>
 <use transform="scale(0.707)" xlink:href="#E1-MJMAIN-31" x="500" y="0"></use>
</g>
 <use xlink:href="#E1-MJMAIN-2B" x="1559" y="0"></use>
<g transform="translate(2560,0)">
 <use xlink:href="#E1-MJMATHI-62" x="0" y="0"></use>
<g transform="translate(429,-150)">
 <use transform="scale(0.707)" xlink:href="#E1-MJMAIN-32"></use>
 <use transform="scale(0.707)" xlink:href="#E1-MJMAIN-31" x="500" y="0"></use>
</g>
</g>
</g>
<g transform="translate(1581,-750)">
 <use xlink:href="#E1-MJMAIN-2E" x="0" y="0"></use>
 <use xlink:href="#E1-MJMAIN-2E" x="445" y="0"></use>
 <use xlink:href="#E1-MJMAIN-2E" x="890" y="0"></use>
</g>
<g transform="translate(0,-2150)">
 <use xlink:href="#E1-MJMATHI-61" x="0" y="0"></use>
<g transform="translate(529,-150)">
 <use transform="scale(0.707)" xlink:href="#E1-MJMATHI-6D" x="0" y="0"></use>
 <use transform="scale(0.707)" xlink:href="#E1-MJMAIN-31" x="878" y="0"></use>
</g>
 <use xlink:href="#E1-MJMAIN-2B" x="1826" y="0"></use>
<g transform="translate(2827,0)">
 <use xlink:href="#E1-MJMATHI-62" x="0" y="0"></use>
<g transform="translate(429,-150)">
 <use transform="scale(0.707)" xlink:href="#E1-MJMATHI-6D" x="0" y="0"></use>
 <use transform="scale(0.707)" xlink:href="#E1-MJMAIN-31" x="878" y="0"></use>
</g>
</g>
</g>
</g>
<g transform="translate(5321,0)">
<g transform="translate(267,2050)">
 <use xlink:href="#E1-MJMATHI-61" x="0" y="0"></use>
<g transform="translate(529,-150)">
 <use transform="scale(0.707)" xlink:href="#E1-MJMAIN-31"></use>
 <use transform="scale(0.707)" xlink:href="#E1-MJMAIN-32" x="500" y="0"></use>
</g>
 <use xlink:href="#E1-MJMAIN-2B" x="1559" y="0"></use>
<g transform="translate(2560,0)">
 <use xlink:href="#E1-MJMATHI-62" x="0" y="0"></use>
<g transform="translate(429,-150)">
 <use transform="scale(0.707)" xlink:href="#E1-MJMAIN-31"></use>
 <use transform="scale(0.707)" xlink:href="#E1-MJMAIN-32" x="500" y="0"></use>
</g>
</g>
</g>
<g transform="translate(267,650)">
 <use xlink:href="#E1-MJMATHI-61" x="0" y="0"></use>
<g transform="translate(529,-150)">
 <use transform="scale(0.707)" xlink:href="#E1-MJMAIN-32"></use>
 <use transform="scale(0.707)" xlink:href="#E1-MJMAIN-32" x="500" y="0"></use>
</g>
 <use xlink:href="#E1-MJMAIN-2B" x="1559" y="0"></use>
<g transform="translate(2560,0)">
 <use xlink:href="#E1-MJMATHI-62" x="0" y="0"></use>
<g transform="translate(429,-150)">
 <use transform="scale(0.707)" xlink:href="#E1-MJMAIN-32"></use>
 <use transform="scale(0.707)" xlink:href="#E1-MJMAIN-32" x="500" y="0"></use>
</g>
</g>
</g>
<g transform="translate(1581,-750)">
 <use xlink:href="#E1-MJMAIN-2E" x="0" y="0"></use>
 <use xlink:href="#E1-MJMAIN-2E" x="445" y="0"></use>
 <use xlink:href="#E1-MJMAIN-2E" x="890" y="0"></use>
</g>
<g transform="translate(0,-2150)">
 <use xlink:href="#E1-MJMATHI-61" x="0" y="0"></use>
<g transform="translate(529,-150)">
 <use transform="scale(0.707)" xlink:href="#E1-MJMATHI-6D" x="0" y="0"></use>
 <use transform="scale(0.707)" xlink:href="#E1-MJMAIN-32" x="878" y="0"></use>
</g>
 <use xlink:href="#E1-MJMAIN-2B" x="1826" y="0"></use>
<g transform="translate(2827,0)">
 <use xlink:href="#E1-MJMATHI-62" x="0" y="0"></use>
<g transform="translate(429,-150)">
 <use transform="scale(0.707)" xlink:href="#E1-MJMATHI-6D" x="0" y="0"></use>
 <use transform="scale(0.707)" xlink:href="#E1-MJMAIN-32" x="878" y="0"></use>
</g>
</g>
</g>
</g>
<g transform="translate(10653,0)">
<g transform="translate(0,2050)">
 <use xlink:href="#E1-MJMAIN-2E" x="0" y="0"></use>
 <use xlink:href="#E1-MJMAIN-2E" x="445" y="0"></use>
 <use xlink:href="#E1-MJMAIN-2E" x="890" y="0"></use>
</g>
<g transform="translate(0,650)">
 <use xlink:href="#E1-MJMAIN-2E" x="0" y="0"></use>
 <use xlink:href="#E1-MJMAIN-2E" x="445" y="0"></use>
 <use xlink:href="#E1-MJMAIN-2E" x="890" y="0"></use>
</g>
<g transform="translate(0,-750)">
 <use xlink:href="#E1-MJMAIN-2E" x="0" y="0"></use>
 <use xlink:href="#E1-MJMAIN-2E" x="445" y="0"></use>
 <use xlink:href="#E1-MJMAIN-2E" x="890" y="0"></use>
</g>
<g transform="translate(0,-2150)">
 <use xlink:href="#E1-MJMAIN-2E" x="0" y="0"></use>
 <use xlink:href="#E1-MJMAIN-2E" x="445" y="0"></use>
 <use xlink:href="#E1-MJMAIN-2E" x="890" y="0"></use>
</g>
</g>
<g transform="translate(12822,0)">
<g transform="translate(267,2050)">
 <use xlink:href="#E1-MJMATHI-61" x="0" y="0"></use>
<g transform="translate(529,-150)">
 <use transform="scale(0.707)" xlink:href="#E1-MJMAIN-31" x="0" y="0"></use>
 <use transform="scale(0.707)" xlink:href="#E1-MJMATHI-6E" x="500" y="0"></use>
</g>
 <use xlink:href="#E1-MJMAIN-2B" x="1630" y="0"></use>
<g transform="translate(2630,0)">
 <use xlink:href="#E1-MJMATHI-62" x="0" y="0"></use>
<g transform="translate(429,-150)">
 <use transform="scale(0.707)" xlink:href="#E1-MJMAIN-31" x="0" y="0"></use>
 <use transform="scale(0.707)" xlink:href="#E1-MJMATHI-6E" x="500" y="0"></use>
</g>
</g>
</g>
<g transform="translate(267,650)">
 <use xlink:href="#E1-MJMATHI-61" x="0" y="0"></use>
<g transform="translate(529,-150)">
 <use transform="scale(0.707)" xlink:href="#E1-MJMAIN-32" x="0" y="0"></use>
 <use transform="scale(0.707)" xlink:href="#E1-MJMATHI-6E" x="500" y="0"></use>
</g>
 <use xlink:href="#E1-MJMAIN-2B" x="1630" y="0"></use>
<g transform="translate(2630,0)">
 <use xlink:href="#E1-MJMATHI-62" x="0" y="0"></use>
<g transform="translate(429,-150)">
 <use transform="scale(0.707)" xlink:href="#E1-MJMAIN-32" x="0" y="0"></use>
 <use transform="scale(0.707)" xlink:href="#E1-MJMATHI-6E" x="500" y="0"></use>
</g>
</g>
</g>
<g transform="translate(1652,-750)">
 <use xlink:href="#E1-MJMAIN-2E" x="0" y="0"></use>
 <use xlink:href="#E1-MJMAIN-2E" x="445" y="0"></use>
 <use xlink:href="#E1-MJMAIN-2E" x="890" y="0"></use>
</g>
<g transform="translate(0,-2150)">
 <use xlink:href="#E1-MJMATHI-61" x="0" y="0"></use>
<g transform="translate(529,-150)">
 <use transform="scale(0.707)" xlink:href="#E1-MJMATHI-6D" x="0" y="0"></use>
 <use transform="scale(0.707)" xlink:href="#E1-MJMATHI-6E" x="878" y="0"></use>
</g>
 <use xlink:href="#E1-MJMAIN-2B" x="1897" y="0"></use>
<g transform="translate(2898,0)">
 <use xlink:href="#E1-MJMATHI-62" x="0" y="0"></use>
<g transform="translate(429,-150)">
 <use transform="scale(0.707)" xlink:href="#E1-MJMATHI-6D" x="0" y="0"></use>
 <use transform="scale(0.707)" xlink:href="#E1-MJMATHI-6E" x="878" y="0"></use>
</g>
</g>
</g>
</g>
</g>
<g transform="translate(18297,2850)">
 <use xlink:href="#E1-MJSZ4-23A4" x="0" y="-1155"></use>
<g transform="translate(0,-3446.188741721854) scale(1,2.8112582781456954)">
 <use xlink:href="#E1-MJSZ4-23A5"></use>
</g>
 <use xlink:href="#E1-MJSZ4-23A6" x="0" y="-4555"></use>
</g>
</g>
</g>
</svg>