<svg xmlns:xlink="http://www.w3.org/1999/xlink" width="16.62ex" height="2.343ex" style="font-size: 15px; vertical-align: -0.505ex;" viewBox="0 -791.3 7155.9 1008.6" role="img" focusable="false" xmlns="http://www.w3.org/2000/svg">
<defs>
<path stroke-width="1" id="E1-MJMAINB-41" d="M296 0Q278 3 164 3Q58 3 49 0H40V62H92Q144 62 144 64Q388 682 397 689Q403 698 434 698Q463 698 471 689Q475 686 538 530T663 218L724 64Q724 62 776 62H828V0H817Q796 3 658 3Q509 3 485 0H472V62H517Q561 62 561 63L517 175H262L240 120Q218 65 217 64Q217 62 261 62H306V0H296ZM390 237L492 238L440 365Q390 491 388 491Q287 239 287 237H390Z"></path>
<path stroke-width="1" id="E1-MJMAIN-2B" d="M56 237T56 250T70 270H369V420L370 570Q380 583 389 583Q402 583 409 568V270H707Q722 262 722 250T707 230H409V-68Q401 -82 391 -82H389H387Q375 -82 369 -68V230H70Q56 237 56 250Z"></path>
<path stroke-width="1" id="E1-MJMAINB-42" d="M720 510Q720 476 704 448T665 404T619 377T580 362L564 359L583 356Q602 353 632 342T690 312Q712 292 725 276Q752 235 752 189V183Q752 160 741 125Q698 18 547 2Q543 1 288 0H39V62H147V624H39V686H264H409Q502 686 542 681T624 655Q720 607 720 510ZM563 513Q563 553 548 578T518 611T486 622Q479 624 385 624H293V382H375Q458 383 467 385Q563 405 563 513ZM590 192Q590 307 505 329Q504 330 503 330L398 331H293V62H391H400H444Q496 62 528 75T580 131Q590 155 590 192Z"></path>
<path stroke-width="1" id="E1-MJMAIN-3D" d="M56 347Q56 360 70 367H707Q722 359 722 347Q722 336 708 328L390 327H72Q56 332 56 347ZM56 153Q56 168 72 173H708Q722 163 722 153Q722 140 707 133H70Q56 140 56 153Z"></path>
</defs>
<g stroke="currentColor" fill="currentColor" stroke-width="0" transform="matrix(1 0 0 -1 0 0)">
 <use xlink:href="#E1-MJMAINB-41" x="0" y="0"></use>
 <use xlink:href="#E1-MJMAIN-2B" x="1091" y="0"></use>
 <use xlink:href="#E1-MJMAINB-42" x="2092" y="0"></use>
 <use xlink:href="#E1-MJMAIN-3D" x="3188" y="0"></use>
 <use xlink:href="#E1-MJMAINB-42" x="4245" y="0"></use>
 <use xlink:href="#E1-MJMAIN-2B" x="5285" y="0"></use>
 <use xlink:href="#E1-MJMAINB-41" x="6286" y="0"></use>
</g>
</svg>